<?xml version="1.0" standalone="no"?>
<!DOCTYPE svg PUBLIC "-//W3C//DTD SVG 20010904//EN"
 "http://www.w3.org/TR/2001/REC-SVG-20010904/DTD/svg10.dtd">
<svg version="1.0" xmlns="http://www.w3.org/2000/svg"
 width="100.000000pt" height="100.000000pt" viewBox="0 0 100.000000 100.000000"
 preserveAspectRatio="xMidYMid meet">
<metadata>
Created by potrace 1.11, written by Peter Selinger 2001-2013
</metadata>
<g transform="translate(0.000000,100.000000) scale(0.100000,-0.100000)"
fill="#000000" stroke="none">
<path d="M476 993 c-4 -5 -11 -8 -14 -8 -13 -1 -197 -97 -240 -126 -24 -16
-47 -29 -52 -29 -5 0 -16 -7 -24 -16 -13 -13 -16 -42 -16 -164 0 -161 8 -197
75 -328 53 -106 186 -259 263 -304 28 -17 30 -17 61 7 208 153 352 428 351
672 -1 101 11 86 -132 172 -74 44 -246 131 -260 131 -3 0 -8 -3 -12 -7z"/>
</g>
</svg>
